<svg xmlns="http://www.w3.org/2000/svg" width="3217" height="3128" viewBox="0 0 3217 3128" version="1.1">
	<path d="M 1448.500 229.537 C 1426.742 235.536, 1417.026 237.580, 1396.239 240.530 C 1230.340 264.075, 1073.316 322.362, 929.500 413.781 C 870.471 451.304, 808.507 498.952, 757 546.430 C 745.147 557.356, 705.097 597.232, 692.642 610.509 C 572.932 738.118, 481.051 892.461, 427.611 1055.707 C 398.900 1143.412, 381.912 1229.542, 374.298 1326 C 372.058 1354.379, 371.722 1459.153, 373.783 1486.500 C 378.496 1549.037, 384.211 1591.968, 395.015 1646 C 427.841 1810.166, 493.764 1962.903, 591.828 2102 C 631.118 2157.731, 671.863 2205.924, 722.953 2257.095 C 749.245 2283.428, 758.789 2292.522, 780 2311.452 C 788.268 2318.831, 810.488 2337.459, 822.502 2347.084 C 946.375 2446.324, 1086.971 2519.872, 1238 2564.439 C 1317.280 2587.834, 1409.331 2604.535, 1486.500 2609.526 C 1491.450 2609.846, 1496.400 2610.284, 1497.500 2610.500 C 1502.476 2611.474, 1542.728 2612.500, 1576 2612.500 C 1610.156 2612.500, 1637.452 2611.792, 1655 2610.451 C 1719.798 2605.498, 1754.021 2600.590, 1860.667 2580.952 C 1890.459 2575.466, 1923.935 2569.419, 1935.058 2567.514 C 1946.181 2565.610, 1955.526 2563.808, 1955.824 2563.510 C 1956.122 2563.211, 1949.531 2522.812, 1941.177 2473.734 C 1932.824 2424.655, 1919.002 2343.325, 1910.462 2293 C 1901.922 2242.675, 1894.593 2200.660, 1894.176 2199.633 C 1893.563 2198.127, 1891.603 2200.442, 1884.018 2211.633 C 1842.503 2272.887, 1823.155 2298.088, 1800.054 2321 C 1779.571 2341.315, 1762.566 2353.678, 1739.500 2365.022 C 1717.815 2375.688, 1694.364 2382.412, 1670.750 2384.735 L 1662 2385.596 1662 2150.399 L 1662 1915.203 1669.250 1914.548 C 1685.271 1913.100, 1717.826 1910.010, 1738 1908.022 C 1743.775 1907.453, 1757.950 1906.084, 1769.500 1904.981 C 1820.155 1900.142, 1842.547 1897.764, 1843.191 1897.154 C 1843.571 1896.794, 1839.634 1870.175, 1834.443 1838 C 1829.251 1805.825, 1825.003 1778.938, 1825.002 1778.250 C 1825 1777.260, 1808.032 1777, 1743.500 1777 L 1662 1777 1662 1521.559 C 1662 1381.066, 1662.338 1265.921, 1662.750 1265.680 C 1663.162 1265.439, 1670.250 1264.939, 1678.500 1264.569 C 1686.750 1264.200, 1695.750 1263.713, 1698.500 1263.487 C 1701.250 1263.262, 1708.900 1262.821, 1715.500 1262.507 C 1722.100 1262.194, 1730.425 1261.743, 1734 1261.504 C 1737.575 1261.265, 1745.900 1260.815, 1752.500 1260.504 C 1759.100 1260.193, 1767.425 1259.742, 1771 1259.503 C 1774.575 1259.263, 1782.450 1258.819, 1788.500 1258.516 C 1794.550 1258.212, 1803.437 1257.745, 1808.250 1257.478 C 1813.062 1257.212, 1821.049 1256.768, 1825.999 1256.493 C 1834.908 1255.998, 1843.114 1255.552, 1862.500 1254.507 C 1868 1254.210, 1876.325 1253.760, 1881 1253.507 C 1885.675 1253.253, 1894 1252.803, 1899.500 1252.507 C 1905 1252.210, 1913.325 1251.758, 1918 1251.501 C 1922.675 1251.245, 1931.225 1250.789, 1937 1250.489 C 1942.775 1250.189, 1950.875 1249.741, 1955 1249.495 C 1959.125 1249.248, 1967.675 1248.798, 1974 1248.493 C 1980.325 1248.189, 1988.875 1247.739, 1993 1247.492 C 1997.125 1247.245, 2005.225 1246.798, 2011 1246.498 C 2028.009 1245.615, 2037.862 1245.073, 2048.653 1244.429 L 2058.806 1243.822 2059.430 1252.161 C 2059.774 1256.748, 2060.253 1267.700, 2060.495 1276.500 C 2060.737 1285.300, 2061.255 1300.375, 2061.647 1310 C 2063.436 1353.990, 2062.082 1385.789, 2057.416 1409.377 C 2056.107 1415.998, 2055.578 1424.187, 2055.570 1438 C 2055.560 1455.708, 2056.114 1460.538, 2059.602 1473.185 C 2068.520 1505.519, 2090.277 1532.346, 2131.344 1561.645 C 2141.386 1568.810, 2188.320 1599, 2189.416 1599 C 2189.737 1599, 2190.001 1516.537, 2190.002 1415.750 L 2190.004 1232.500 2370.752 1186.370 C 2470.163 1160.999, 2551.607 1140.331, 2551.737 1140.441 C 2551.867 1140.551, 2553.339 1153.659, 2555.008 1169.570 C 2556.677 1185.482, 2560.275 1219.200, 2563.004 1244.500 C 2579.782 1400.067, 2584.315 1470.057, 2579.585 1500.500 C 2570.115 1561.442, 2538.666 1605.654, 2481.068 1638.998 C 2462.813 1649.566, 2437.723 1659.524, 2362.500 1686.054 C 2337.200 1694.977, 2315.476 1702.658, 2314.226 1703.123 C 2312.109 1703.910, 2312.576 1704.520, 2320.945 1711.898 C 2325.892 1716.258, 2337.265 1726.583, 2346.219 1734.841 C 2374.893 1761.284, 2388.199 1771.306, 2406.177 1780.003 C 2421.610 1787.469, 2429.582 1789.311, 2446.500 1789.319 C 2466.040 1789.328, 2477.687 1786.522, 2497.841 1776.948 L 2508.182 1772.036 2505.540 1776.268 C 2500.839 1783.799, 2493.185 1800.341, 2491.551 1806.500 C 2486.317 1826.238, 2489.692 1842.750, 2502.421 1859.684 C 2510.170 1869.992, 2516.744 1875.437, 2554.093 1902.485 C 2568.791 1913.129, 2589.875 1929.848, 2614 1949.988 C 2643.707 1974.788, 2660.147 1988.189, 2660.434 1987.837 C 2661.341 1986.724, 2683.801 1944.416, 2688.979 1934.065 C 2707.700 1896.648, 2730.299 1841.023, 2746.362 1792.827 C 2811.505 1597.365, 2824.917 1389.733, 2785.395 1188.545 C 2758.944 1053.897, 2709.455 925.571, 2638.251 807 C 2558 673.364, 2453.278 558.040, 2328.500 465.892 C 2220.495 386.130, 2098.996 324.805, 1969.414 284.648 C 1925.103 270.916, 1883.885 260.723, 1799 242.506 C 1771.775 236.664, 1742.646 230.334, 1734.269 228.442 L 1719.038 225 1591.769 225.062 L 1464.500 225.125 1448.500 229.537 M 1500.413 460.499 C 1428.359 481.815, 1351.162 560.014, 1283.232 680.500 C 1272.179 700.104, 1254.742 734.015, 1246.980 751 C 1243.587 758.425, 1239.545 767.226, 1237.998 770.557 C 1235.755 775.387, 1226.181 798.096, 1222.003 808.500 C 1221.561 809.600, 1220.313 812.525, 1219.229 815 C 1212.761 829.771, 1189.445 896.417, 1184.566 914.080 C 1183.743 917.061, 1181.473 924.900, 1179.522 931.500 C 1175.965 943.532, 1165.562 983.872, 1164.564 989.500 C 1164.272 991.150, 1163.606 993.962, 1163.086 995.750 C 1162.565 997.538, 1162.322 999, 1162.545 999 C 1162.768 999, 1162.551 1000.050, 1162.063 1001.333 C 1161.576 1002.616, 1160.920 1005.204, 1160.606 1007.083 C 1160.014 1010.636, 1159.828 1011.540, 1158.160 1019 C 1157.607 1021.475, 1156.858 1025.300, 1156.497 1027.500 C 1156.136 1029.700, 1155.733 1031.950, 1155.602 1032.500 C 1154.862 1035.604, 1154.001 1039.982, 1153.439 1043.500 C 1153.088 1045.700, 1152.642 1048.400, 1152.450 1049.500 C 1151.621 1054.239, 1151.055 1057.751, 1150.530 1061.419 C 1150.221 1063.574, 1149.720 1066.724, 1149.416 1068.419 C 1149.111 1070.114, 1148.673 1072.850, 1148.442 1074.500 C 1148.211 1076.150, 1147.797 1079.075, 1147.523 1081 C 1146.020 1091.557, 1145.102 1098.913, 1144.485 1105.348 C 1144.282 1107.464, 1143.839 1110.459, 1143.499 1112.003 C 1143.160 1113.546, 1143.247 1115.025, 1143.691 1115.288 C 1144.136 1115.551, 1151.025 1116.061, 1159 1116.421 C 1166.975 1116.780, 1175.975 1117.264, 1179 1117.494 C 1182.025 1117.725, 1190.350 1118.173, 1197.500 1118.489 C 1204.650 1118.806, 1213.425 1119.259, 1217 1119.496 C 1220.575 1119.733, 1229.575 1120.206, 1237 1120.547 C 1244.425 1120.888, 1252.075 1121.323, 1254 1121.515 C 1255.925 1121.706, 1264.475 1122.133, 1273 1122.462 C 1281.525 1122.792, 1290.525 1123.261, 1293 1123.504 C 1295.475 1123.747, 1303.125 1124.200, 1310 1124.510 C 1316.875 1124.820, 1325.425 1125.270, 1329 1125.508 C 1332.575 1125.747, 1340.675 1126.192, 1347 1126.496 C 1353.325 1126.800, 1361.650 1127.248, 1365.500 1127.490 C 1369.350 1127.733, 1377.675 1128.183, 1384 1128.490 C 1390.325 1128.798, 1398.650 1129.250, 1402.500 1129.496 C 1406.350 1129.741, 1414.900 1130.197, 1421.500 1130.508 C 1428.100 1130.819, 1436.200 1131.264, 1439.500 1131.498 C 1442.800 1131.732, 1451.350 1132.176, 1458.500 1132.484 C 1465.650 1132.792, 1473.750 1133.244, 1476.500 1133.489 C 1479.250 1133.734, 1487.800 1134.207, 1495.500 1134.540 C 1503.200 1134.872, 1510.287 1135.367, 1511.250 1135.640 C 1512.914 1136.110, 1513 1119.511, 1513 797.067 L 1513 458 1510.750 458.053 C 1509.513 458.082, 1504.861 459.183, 1500.413 460.499 M 1662 796.946 L 1662 1135.738 1664.750 1135.469 C 1666.263 1135.321, 1673.350 1134.921, 1680.500 1134.579 C 1687.650 1134.238, 1701.600 1133.523, 1711.500 1132.990 C 1721.400 1132.457, 1734.450 1131.780, 1740.500 1131.487 C 1746.550 1131.194, 1754.875 1130.752, 1759 1130.507 C 1763.125 1130.261, 1771.675 1129.811, 1778 1129.507 C 1784.325 1129.202, 1792.875 1128.755, 1797 1128.512 C 1816.659 1127.354, 1823.346 1126.989, 1834 1126.491 C 1840.325 1126.196, 1848.875 1125.755, 1853 1125.512 C 1862.162 1124.972, 1882.992 1123.853, 1909 1122.502 C 1914.775 1122.202, 1922.875 1121.755, 1927 1121.507 C 1931.125 1121.260, 1939.450 1120.803, 1945.500 1120.493 C 1951.550 1120.182, 1959.875 1119.729, 1964 1119.487 C 1968.125 1119.244, 1976.450 1118.800, 1982.500 1118.499 C 1988.550 1118.199, 1996.650 1117.755, 2000.500 1117.513 C 2004.350 1117.272, 2012.900 1116.783, 2019.500 1116.428 C 2026.100 1116.073, 2031.725 1115.569, 2032 1115.309 C 2033.231 1114.144, 2031.980 1087.925, 2029.576 1064.500 C 2029.237 1061.200, 2028.747 1056.925, 2028.487 1055 C 2028.228 1053.075, 2027.776 1049.440, 2027.483 1046.921 C 2027.191 1044.403, 2026.739 1041.253, 2026.480 1039.921 C 2026.220 1038.590, 2025.749 1035.254, 2025.433 1032.509 C 2025.116 1029.765, 2024.409 1025.265, 2023.862 1022.509 C 2023.315 1019.754, 2022.647 1016.375, 2022.378 1015 C 2022.110 1013.625, 2020.748 1006.875, 2019.351 1000 C 2017.955 993.125, 2016.613 986.375, 2016.370 985 C 2016.127 983.625, 2015.509 981.150, 2014.997 979.500 C 2014.484 977.850, 2013.803 974.925, 2013.483 973 C 2013.163 971.075, 2012.069 966.350, 2011.052 962.500 C 2004.969 939.473, 2003.617 934.548, 2000.891 925.500 C 1996.829 912.016, 1987.170 882.566, 1984.984 877 C 1984.011 874.525, 1981.762 868.450, 1979.986 863.500 C 1978.209 858.550, 1976.184 853.150, 1975.485 851.500 C 1974.787 849.850, 1972.554 844.225, 1970.523 839 C 1968.492 833.775, 1966.247 828.150, 1965.535 826.500 C 1964.822 824.850, 1963.235 821.025, 1962.007 818 C 1960.779 814.975, 1958.650 810.025, 1957.276 807 C 1955.901 803.975, 1953.968 799.700, 1952.979 797.500 C 1906.417 693.914, 1847.800 603.201, 1787 540.639 C 1745.980 498.429, 1704.693 470.236, 1669.185 460.188 L 1662 458.154 1662 796.946 M 1969.190 527.841 C 1969.360 528.226, 1974.422 536.408, 1980.437 546.021 C 2039.875 641.015, 2087.207 753.174, 2122.855 883.500 C 2138.443 940.489, 2154.557 1011.766, 2166.488 1076.500 C 2169.023 1090.250, 2171.412 1102.255, 2171.798 1103.178 C 2172.421 1104.666, 2176.394 1103.745, 2207 1095.023 C 2225.975 1089.615, 2297.295 1069.365, 2365.489 1050.023 C 2433.683 1030.681, 2489.573 1014.760, 2489.690 1014.643 C 2490.144 1014.189, 2465.334 967.871, 2454.575 949.087 C 2339.527 748.230, 2185.084 611.655, 1984.190 533.124 C 1975.769 529.833, 1969.019 527.455, 1969.190 527.841 M 1169 547.402 C 1121.339 563.582, 1075.867 586.691, 1025.500 620.331 C 890.027 710.813, 757.111 861.348, 713.669 973.500 C 708.131 987.796, 706.344 993.367, 702.986 1006.807 C 701.778 1011.641, 701.443 1014.656, 702.072 1015.044 C 702.617 1015.381, 719.136 1019.847, 738.781 1024.969 C 758.427 1030.091, 822.185 1046.796, 880.466 1062.091 C 938.747 1077.387, 986.510 1089.811, 986.606 1089.701 C 987.003 1089.241, 1187 543.098, 1187 542.473 C 1187 541.485, 1184.048 542.293, 1169 547.402 M 618.602 1139.250 C 618.316 1141.588, 616.032 1186.025, 613.527 1238 C 606.327 1387.376, 604.833 1422.819, 602.959 1488.781 C 601.768 1530.713, 601.924 1532.270, 608.615 1545.500 C 615.916 1559.934, 627.229 1572.783, 643.022 1584.578 C 716.161 1639.198, 808.305 1678.324, 924 1703.885 C 942.189 1707.904, 983.670 1716, 986.070 1716 C 987.971 1716, 988 1712.374, 988 1471.500 C 988 1337.025, 987.728 1227, 987.395 1227 C 987.062 1227, 904.373 1206.300, 803.641 1181 C 702.909 1155.700, 620.183 1135, 619.807 1135 C 619.431 1135, 618.888 1136.912, 618.602 1139.250 M 1108.435 1249.187 C 1108.914 1256.248, 1116.379 1400.898, 1118.541 1445 C 1118.716 1448.575, 1119.128 1456.450, 1119.457 1462.500 C 1119.785 1468.550, 1120.261 1477.550, 1120.514 1482.500 C 1120.767 1487.450, 1121.211 1495.775, 1121.500 1501 C 1121.790 1506.225, 1122.259 1515, 1122.544 1520.500 C 1122.829 1526, 1123.255 1534.100, 1123.490 1538.500 C 1123.726 1542.900, 1124.157 1551, 1124.448 1556.500 C 1124.740 1562, 1125.217 1570.550, 1125.508 1575.500 C 1125.800 1580.450, 1126.250 1588.325, 1126.510 1593 C 1126.769 1597.675, 1127.198 1605.100, 1127.462 1609.500 C 1128.125 1620.549, 1128.976 1635.063, 1129.486 1644 C 1130.363 1659.354, 1131.033 1670.699, 1131.467 1677.500 C 1132.331 1691.066, 1133.102 1703.576, 1133.498 1710.455 C 1133.812 1715.903, 1134.677 1718.985, 1137.492 1724.682 C 1141.723 1733.242, 1151.335 1743.557, 1158.026 1746.718 C 1162.722 1748.936, 1188.282 1752.292, 1278.136 1762.484 C 1319.706 1767.200, 1481.523 1784.419, 1505.250 1786.652 L 1512 1787.287 1512 1527.144 C 1512 1280.084, 1511.912 1266.996, 1510.250 1266.923 C 1509.287 1266.881, 1507.825 1266.718, 1507 1266.560 C 1506.175 1266.403, 1499.238 1265.947, 1491.585 1265.548 C 1483.931 1265.148, 1476.956 1264.688, 1476.085 1264.524 C 1475.213 1264.361, 1468.425 1263.900, 1461 1263.500 C 1453.575 1263.100, 1446.825 1262.652, 1446 1262.505 C 1445.175 1262.357, 1438.200 1261.909, 1430.500 1261.510 C 1422.800 1261.110, 1415.825 1260.656, 1415 1260.500 C 1414.175 1260.344, 1407.200 1259.890, 1399.500 1259.490 C 1391.800 1259.091, 1384.825 1258.643, 1384 1258.495 C 1383.175 1258.348, 1376.425 1257.900, 1369 1257.500 C 1361.575 1257.100, 1354.825 1256.650, 1354 1256.500 C 1353.175 1256.350, 1346.425 1255.917, 1339 1255.537 C 1331.575 1255.158, 1324.375 1254.691, 1323 1254.500 C 1321.625 1254.308, 1314.875 1253.858, 1308 1253.500 C 1301.125 1253.142, 1294.375 1252.692, 1293 1252.500 C 1291.625 1252.308, 1284.875 1251.867, 1278 1251.520 C 1271.125 1251.173, 1263.925 1250.714, 1262 1250.500 C 1260.075 1250.285, 1253.325 1249.835, 1247 1249.500 C 1240.675 1249.165, 1233.925 1248.715, 1232 1248.500 C 1230.075 1248.285, 1223.325 1247.835, 1217 1247.500 C 1210.675 1247.165, 1203.925 1246.715, 1202 1246.500 C 1200.075 1246.285, 1193.325 1245.835, 1187 1245.500 C 1180.675 1245.165, 1173.925 1244.715, 1172 1244.500 C 1170.075 1244.285, 1163.325 1243.835, 1157 1243.500 C 1150.675 1243.165, 1143.925 1242.715, 1142 1242.500 C 1140.075 1242.285, 1133.325 1241.835, 1127 1241.500 C 1120.675 1241.165, 1113.768 1240.662, 1111.652 1240.382 L 1107.804 1239.874 1108.435 1249.187 M 1865 1459.637 C 1865 1460.537, 1879.668 1548.850, 1897.595 1655.887 C 1915.522 1762.924, 1930.395 1851.850, 1930.646 1853.500 C 1931.195 1857.120, 1932.824 1866.557, 1933.487 1869.960 C 1933.750 1871.313, 1934.206 1874.031, 1934.500 1876 C 1934.794 1877.969, 1935.244 1880.669, 1935.500 1882 C 1935.756 1883.331, 1936.206 1886.031, 1936.500 1888 C 1936.794 1889.969, 1937.244 1892.669, 1937.500 1894 C 1937.756 1895.331, 1938.206 1898.031, 1938.500 1900 C 1938.794 1901.969, 1939.244 1904.669, 1939.500 1906 C 1939.756 1907.331, 1940.206 1910.031, 1940.500 1912 C 1940.794 1913.969, 1941.251 1916.687, 1941.515 1918.040 C 1941.780 1919.393, 1942.252 1922.525, 1942.564 1925 C 1942.877 1927.475, 1943.317 1930.175, 1943.543 1931 C 1943.768 1931.825, 1944.225 1934.245, 1944.558 1936.377 C 1944.891 1938.509, 1945.344 1941.191, 1945.565 1942.337 C 1945.785 1943.482, 1946.206 1946.031, 1946.500 1948 C 1946.794 1949.969, 1947.244 1952.669, 1947.500 1954 C 1947.756 1955.331, 1948.206 1958.031, 1948.500 1960 C 1948.794 1961.969, 1949.244 1964.669, 1949.500 1966 C 1949.756 1967.331, 1950.206 1970.031, 1950.500 1972 C 1950.794 1973.969, 1951.244 1976.669, 1951.500 1978 C 1951.756 1979.331, 1952.206 1982.031, 1952.500 1984 C 1952.794 1985.969, 1953.244 1988.669, 1953.500 1990 C 1953.756 1991.331, 1954.213 1994.238, 1954.514 1996.460 C 1954.816 1998.682, 1955.281 2001.625, 1955.548 2003 C 1956.661 2008.727, 1956.992 2010.597, 1957.500 2014 C 1957.794 2015.969, 1958.244 2018.669, 1958.500 2020 C 1958.756 2021.331, 1959.206 2024.031, 1959.500 2026 C 1959.794 2027.969, 1960.244 2030.669, 1960.500 2032 C 1960.756 2033.331, 1961.206 2036.031, 1961.500 2038 C 1961.794 2039.969, 1962.244 2042.669, 1962.500 2044 C 1962.756 2045.331, 1963.206 2048.031, 1963.500 2050 C 1963.794 2051.969, 1964.244 2054.669, 1964.500 2056 C 1964.756 2057.331, 1965.206 2060.031, 1965.500 2062 C 1965.794 2063.969, 1966.244 2066.669, 1966.500 2068 C 1966.756 2069.331, 1967.206 2072.031, 1967.500 2074 C 1967.794 2075.969, 1968.244 2078.669, 1968.500 2080 C 1968.756 2081.331, 1969.206 2084.031, 1969.500 2086 C 1969.794 2087.969, 1970.244 2090.669, 1970.500 2092 C 1970.756 2093.331, 1971.206 2096.031, 1971.500 2098 C 1971.794 2099.969, 1972.244 2102.669, 1972.500 2104 C 1972.756 2105.331, 1973.206 2108.031, 1973.500 2110 C 1973.794 2111.969, 1974.244 2114.669, 1974.500 2116 C 1974.756 2117.331, 1975.206 2120.031, 1975.500 2122 C 1975.794 2123.969, 1976.244 2126.669, 1976.500 2128 C 1976.756 2129.331, 1977.206 2132.031, 1977.500 2134 C 1977.794 2135.969, 1978.244 2138.669, 1978.500 2140 C 1978.756 2141.331, 1979.206 2144.031, 1979.500 2146 C 1979.794 2147.969, 1980.244 2150.669, 1980.500 2152 C 1980.756 2153.331, 1981.206 2156.031, 1981.500 2158 C 1981.794 2159.969, 1982.244 2162.669, 1982.500 2164 C 1982.756 2165.331, 1983.206 2168.031, 1983.500 2170 C 1983.794 2171.969, 1984.244 2174.669, 1984.500 2176 C 1984.756 2177.331, 1985.206 2180.031, 1985.500 2182 C 1985.794 2183.969, 1986.244 2186.669, 1986.500 2188 C 1986.756 2189.331, 1987.206 2192.031, 1987.500 2194 C 1987.794 2195.969, 1988.244 2198.669, 1988.500 2200 C 1988.756 2201.331, 1989.206 2204.031, 1989.500 2206 C 1989.794 2207.969, 1990.244 2210.669, 1990.500 2212 C 1990.756 2213.331, 1991.206 2216.031, 1991.500 2218 C 1991.794 2219.969, 1992.244 2222.669, 1992.500 2224 C 1992.756 2225.331, 1993.206 2228.031, 1993.500 2230 C 1993.794 2231.969, 1994.244 2234.669, 1994.500 2236 C 1994.756 2237.331, 1995.206 2240.031, 1995.500 2242 C 1995.794 2243.969, 1996.244 2246.669, 1996.500 2248 C 1996.756 2249.331, 1997.206 2252.031, 1997.500 2254 C 1997.794 2255.969, 1998.244 2258.669, 1998.500 2260 C 1998.756 2261.331, 1999.206 2264.031, 1999.500 2266 C 1999.794 2267.969, 2000.244 2270.669, 2000.500 2272 C 2000.756 2273.331, 2001.206 2276.031, 2001.500 2278 C 2001.794 2279.969, 2002.244 2282.669, 2002.500 2284 C 2002.756 2285.331, 2003.206 2288.031, 2003.500 2290 C 2003.794 2291.969, 2004.244 2294.669, 2004.500 2296 C 2004.756 2297.331, 2005.206 2300.031, 2005.500 2302 C 2005.794 2303.969, 2006.244 2306.669, 2006.500 2308 C 2006.756 2309.331, 2007.206 2312.031, 2007.500 2314 C 2007.794 2315.969, 2008.244 2318.669, 2008.500 2320 C 2008.756 2321.331, 2009.206 2324.031, 2009.500 2326 C 2009.794 2327.969, 2010.244 2330.669, 2010.500 2332 C 2010.756 2333.331, 2011.206 2336.031, 2011.500 2338 C 2011.794 2339.969, 2012.244 2342.669, 2012.500 2344 C 2012.756 2345.331, 2013.206 2348.031, 2013.500 2350 C 2013.794 2351.969, 2014.244 2354.669, 2014.500 2356 C 2014.756 2357.331, 2015.206 2360.031, 2015.500 2362 C 2015.794 2363.969, 2016.244 2366.669, 2016.500 2368 C 2016.756 2369.331, 2017.206 2372.031, 2017.500 2374 C 2017.794 2375.969, 2018.244 2378.669, 2018.500 2380 C 2018.756 2381.331, 2019.206 2384.031, 2019.500 2386 C 2019.794 2387.969, 2020.244 2390.669, 2020.500 2392 C 2020.756 2393.331, 2021.206 2396.031, 2021.500 2398 C 2021.794 2399.969, 2022.244 2402.669, 2022.500 2404 C 2022.756 2405.331, 2023.206 2408.031, 2023.500 2410 C 2023.794 2411.969, 2024.244 2414.669, 2024.500 2416 C 2024.756 2417.331, 2025.206 2420.031, 2025.500 2422 C 2025.794 2423.969, 2026.244 2426.669, 2026.500 2428 C 2026.756 2429.331, 2027.206 2432.031, 2027.500 2434 C 2027.794 2435.969, 2028.244 2438.669, 2028.500 2440 C 2028.756 2441.331, 2029.206 2444.031, 2029.500 2446 C 2029.794 2447.969, 2030.244 2450.669, 2030.500 2452 C 2030.756 2453.331, 2031.206 2456.031, 2031.500 2458 C 2031.794 2459.969, 2032.244 2462.669, 2032.500 2464 C 2032.756 2465.331, 2033.206 2468.031, 2033.500 2470 C 2033.794 2471.969, 2034.244 2474.669, 2034.500 2476 C 2034.756 2477.331, 2035.206 2480.031, 2035.500 2482 C 2035.794 2483.969, 2036.244 2486.669, 2036.500 2488 C 2036.756 2489.331, 2037.206 2492.031, 2037.500 2494 C 2037.794 2495.969, 2038.244 2498.669, 2038.500 2500 C 2038.756 2501.331, 2039.206 2504.031, 2039.500 2506 C 2039.794 2507.969, 2040.244 2510.669, 2040.500 2512 C 2040.756 2513.331, 2041.206 2516.031, 2041.500 2518 C 2041.794 2519.969, 2042.244 2522.669, 2042.500 2524 C 2042.756 2525.331, 2043.206 2528.031, 2043.500 2530 C 2043.794 2531.969, 2044.244 2534.669, 2044.500 2536 C 2044.756 2537.331, 2045.206 2540.031, 2045.500 2542 C 2045.794 2543.969, 2046.244 2546.669, 2046.500 2548 C 2046.756 2549.331, 2047.206 2552.031, 2047.500 2554 C 2047.794 2555.969, 2048.244 2558.669, 2048.500 2560 C 2048.756 2561.331, 2049.206 2564.031, 2049.500 2566 C 2049.794 2567.969, 2050.244 2570.669, 2050.500 2572 C 2050.756 2573.331, 2051.206 2576.031, 2051.500 2578 C 2051.794 2579.969, 2052.244 2582.669, 2052.500 2584 C 2052.756 2585.331, 2053.206 2588.031, 2053.500 2590 C 2053.794 2591.969, 2054.244 2594.669, 2054.500 2596 C 2054.756 2597.331, 2055.206 2600.031, 2055.500 2602 C 2055.794 2603.969, 2056.244 2606.669, 2056.500 2608 C 2056.756 2609.331, 2057.206 2612.031, 2057.500 2614 C 2057.794 2615.969, 2058.244 2618.669, 2058.500 2620 C 2058.756 2621.331, 2059.206 2624.031, 2059.500 2626 C 2059.794 2627.969, 2060.244 2630.669, 2060.500 2632 C 2060.756 2633.331, 2061.206 2636.031, 2061.500 2638 C 2061.794 2639.969, 2062.244 2642.669, 2062.500 2644 C 2062.756 2645.331, 2063.206 2648.031, 2063.500 2650 C 2063.794 2651.969, 2064.244 2654.669, 2064.500 2656 C 2064.756 2657.331, 2065.206 2660.031, 2065.500 2662 C 2065.794 2663.969, 2066.244 2666.669, 2066.500 2668 C 2066.756 2669.331, 2067.246 2672.238, 2067.588 2674.460 C 2067.931 2676.682, 2068.354 2679.175, 2068.529 2680 C 2068.704 2680.825, 2068.881 2681.809, 2068.923 2682.186 C 2069.002 2682.892, 2089.449 2695.468, 2092.292 2696.559 C 2093.471 2697.011, 2109.263 2679.191, 2153.635 2627.334 C 2285.550 2473.169, 2314.243 2439.914, 2315.098 2440.201 C 2315.588 2440.365, 2342.808 2486.400, 2375.586 2542.500 C 2408.364 2598.600, 2469.627 2703.450, 2511.727 2775.500 C 2553.827 2847.550, 2588.803 2907.077, 2589.453 2907.782 C 2590.397 2908.805, 2606.545 2900.020, 2669.567 2864.198 C 2774.210 2804.718, 2776 2803.686, 2776 2802.855 C 2776 2802.460, 2759.517 2773.644, 2739.372 2738.818 C 2593.274 2486.259, 2513.942 2348.725, 2514.205 2348.461 C 2514.375 2348.292, 2590.111 2327.584, 2682.507 2302.445 C 2774.903 2277.306, 2850.811 2256.459, 2851.192 2256.119 C 2851.755 2255.615, 2762.754 2183.110, 2659.648 2100.080 C 2642.064 2085.919, 2626.423 2073.266, 2607 2057.489 C 2602.875 2054.138, 2593.425 2046.496, 2586 2040.506 C 2569.556 2027.240, 2549.106 2010.698, 2539 2002.489 C 2530.893 1995.904, 2512.068 1980.679, 2494.500 1966.498 C 2482.314 1956.662, 2461.543 1939.860, 2450 1930.500 C 2445.875 1927.155, 2436.650 1919.683, 2429.500 1913.895 C 2422.350 1908.107, 2411.325 1899.170, 2405 1894.034 C 2398.675 1888.898, 2388.325 1880.534, 2382 1875.447 C 2361.203 1858.720, 2348.651 1848.593, 2338 1839.950 C 2324.057 1828.634, 2296.576 1806.386, 2270 1784.896 C 2229.556 1752.194, 1969.263 1541.541, 1920.805 1502.296 C 1890.723 1477.933, 1865.861 1458, 1865.555 1458 C 1865.250 1458, 1865 1458.737, 1865 1459.637 M 664.905 1774.750 C 698.511 1849.906, 736.220 1916.789, 778.194 1975.687 C 872.068 2107.409, 987.045 2206.425, 1128.200 2277.105 C 1148.170 2287.105, 1173.593 2299, 1174.995 2299 C 1175.388 2299, 1171.307 2286.512, 1165.925 2271.250 C 1160.544 2255.988, 1143.776 2208.400, 1128.662 2165.500 C 1086.421 2045.596, 1043.227 1925.260, 1034.835 1904.097 C 1030.953 1894.309, 1024.248 1884.110, 1016.120 1875.630 C 1004.361 1863.361, 1004.235 1863.305, 955.500 1848.473 C 904.577 1832.976, 664.208 1764, 661.127 1764 C 660.562 1764, 662.262 1768.838, 664.905 1774.750 M 1183.091 1934.633 C 1195.875 1972.636, 1216.176 2030, 1219.496 2037.500 C 1220.227 2039.150, 1221.798 2043.200, 1222.988 2046.500 C 1224.178 2049.800, 1225.838 2054.075, 1226.678 2056 C 1227.517 2057.925, 1228.608 2060.512, 1229.102 2061.750 C 1232.514 2070.298, 1232.874 2071.188, 1238.513 2085 C 1241.095 2091.325, 1244.229 2098.750, 1245.477 2101.500 C 1246.725 2104.250, 1251.218 2114.150, 1255.463 2123.500 C 1286.387 2191.625, 1325.300 2252.850, 1369.396 2302.760 C 1381.205 2316.126, 1410.833 2345.509, 1418.880 2351.835 C 1431.239 2361.549, 1444.659 2367.785, 1477 2378.839 C 1488.275 2382.693, 1500.987 2387.192, 1505.250 2388.836 L 1513 2391.825 1513 2152.913 L 1513 1914 1508.750 1913.923 C 1506.412 1913.881, 1503.825 1913.714, 1503 1913.551 C 1502.175 1913.388, 1495.200 1912.941, 1487.500 1912.556 C 1479.800 1912.172, 1472.375 1911.701, 1471 1911.509 C 1469.625 1911.318, 1462.650 1910.877, 1455.500 1910.531 C 1448.350 1910.184, 1440.925 1909.725, 1439 1909.510 C 1437.075 1909.296, 1430.100 1908.852, 1423.500 1908.523 C 1416.900 1908.195, 1409.475 1907.740, 1407 1907.511 C 1404.525 1907.282, 1397.550 1906.837, 1391.500 1906.520 C 1385.450 1906.204, 1378.025 1905.750, 1375 1905.512 C 1371.975 1905.274, 1365 1904.824, 1359.500 1904.512 C 1354 1904.201, 1346.237 1903.733, 1342.250 1903.473 C 1338.263 1903.213, 1331.737 1902.787, 1327.750 1902.527 C 1323.763 1902.267, 1316 1901.799, 1310.500 1901.488 C 1305 1901.176, 1298.025 1900.726, 1295 1900.488 C 1291.975 1900.250, 1284.550 1899.796, 1278.500 1899.480 C 1272.450 1899.163, 1265.475 1898.718, 1263 1898.490 C 1260.525 1898.262, 1253.325 1897.809, 1247 1897.483 C 1240.675 1897.158, 1233.700 1896.720, 1231.500 1896.511 C 1229.300 1896.301, 1221.650 1895.823, 1214.500 1895.449 C 1207.350 1895.074, 1200.825 1894.644, 1200 1894.493 C 1199.175 1894.342, 1191.864 1893.891, 1183.753 1893.492 L 1169.007 1892.765 1183.091 1934.633" stroke="none" fill="black" fill-rule="evenodd"/>
</svg>